<svg xmlns="http://www.w3.org/2000/svg" viewBox="0 0 64 64" fill="none">
  <!-- Body -->
  <ellipse cx="34" cy="36" rx="16" ry="11" fill="#4dd0c4"/>
  <!-- Wing -->
  <path d="M20 32 Q10 20 18 14 Q26 18 28 30 Z" fill="#2a9d8a"/>
  <!-- Tail -->
  <path d="M48 38 Q58 42 56 50 Q50 46 44 46 Z" fill="#2a9d8a"/>
  <!-- Head -->
  <circle cx="22" cy="26" r="8" fill="#4dd0c4"/>
  <!-- Eye -->
  <circle cx="20" cy="24" r="2" fill="#0f2027"/>
  <circle cx="19.4" cy="23.4" r="0.6" fill="#fff"/>
  <!-- Beak -->
  <path d="M14 26 L10 24 L14 23 Z" fill="#f4a261"/>
  <!-- Legs -->
  <line x1="32" y1="47" x2="30" y2="54" stroke="#f4a261" stroke-width="1.5" stroke-linecap="round"/>
  <line x1="37" y1="47" x2="36" y2="54" stroke="#f4a261" stroke-width="1.5" stroke-linecap="round"/>
  <line x1="30" y1="54" x2="27" y2="56" stroke="#f4a261" stroke-width="1.5" stroke-linecap="round"/>
  <line x1="30" y1="54" x2="32" y2="57" stroke="#f4a261" stroke-width="1.5" stroke-linecap="round"/>
  <line x1="36" y1="54" x2="33" y2="56" stroke="#f4a261" stroke-width="1.5" stroke-linecap="round"/>
  <line x1="36" y1="54" x2="38" y2="57" stroke="#f4a261" stroke-width="1.5" stroke-linecap="round"/>
</svg>
